<?xml version="1.0" encoding="utf-8"?>
<!-- Generator: Adobe Illustrator 27.5.0, SVG Export Plug-In . SVG Version: 6.00 Build 0)  -->
<svg version="1.1" xmlns="http://www.w3.org/2000/svg" xmlns:xlink="http://www.w3.org/1999/xlink" x="0px" y="0px"
	 viewBox="0 0 3710 3710" style="enable-background:new 0 0 3710 3710;" xml:space="preserve">
<g id="Background">
	<g>
		<g>
			<rect style="fill:#FFFFFF;" width="3710" height="3710"/>
		</g>
	</g>
</g>
<g id="Illustration">
	<g>
		<path style="fill:#F4F7FA;" d="M1575.285,541.237c0,0-974.194,42.337-1029.467,899.121S234.905,3112.341,856.731,3161
			s2079.662,143.182,2286.937-367.251C3350.943,2283.316,3454.581,361.498,1575.285,541.237z"/>
		<g>
			<path style="fill:#F4F7FA;" d="M2564.932,3105.466c99.081-12.04,119.534,11.245,220.335,6.677
				c99.151-4.493,105.955-28.226,186.95-23.368c72.82,4.367,166.586,29.504,166.92,56.752
				c0.368,29.993-112.343,72.163-220.334,56.753c-60.092-8.575-55.944-26.021-113.506-33.384
				c-104.281-13.341-134.937,41.736-240.365,30.046c-61-6.764-124.683-33.402-123.52-53.415
				C2442.877,3120.298,2547.28,3107.611,2564.932,3105.466z"/>
			<g>
				
					<linearGradient id="SVGID_1_" gradientUnits="userSpaceOnUse" x1="-1323.545" y1="2411.0515" x2="-1905.9764" y2="3103.616" gradientTransform="matrix(-1 0 0 1 1362.8925 0)">
					<stop  offset="0.0036" style="stop-color:#E38DDD"/>
					<stop  offset="1" style="stop-color:#9571F6"/>
				</linearGradient>
				<path style="fill:url(#SVGID_1_);" d="M2731.197,3152.948c-35.096-173.438-19.982-312.814-4.042-396.977
					c19.339-102.107,58.655-309.68,223.666-425.381c13.003-9.117,142.091-97.901,200.068-53.805
					c29.9,22.741,36.727,77.662,23.654,121.01c-33.756,111.923-185.95,99.506-236.514,226.883
					c-16.838,42.42-19.96,94.18-8.217,99.061c14.458,6.009,55.692-57.283,59.622-63.316c36.761-56.426,37.105-88.373,65.135-97.037
					c17.212-5.322,39.896-0.327,50.044,13.265c23.109,30.954-22.537,101.481-35.3,121.199
					c-33.379,51.574-61.255,63.291-68.033,107.2c-2.918,18.906-2.399,46.854,8.815,51.211c15.166,5.893,44.115-33.609,62.686-58.949
					c49.93-68.128,55.251-107.736,80.075-110.575c23.158-2.649,49.255,28.307,55.958,47.167
					C3227.108,2785.383,3153.577,2894.955,2731.197,3152.948z"/>
				<path style="opacity:0.28;fill:#FFFFFF;" d="M2736.479,3123.196c-5.243-161.159,20.844-288.92,44.477-372.755
					c30.376-107.766,87.51-310.457,247.797-398.172c11.391-6.234,95.191-52.092,118.604-27.532
					c15.608,16.372,1.774,61.312-21.179,91.07c-39.17,50.782-84.289,30.636-148.255,80.481
					c-57.397,44.726-77.555,104.959-82.6,120.721c-18.716,58.475-8.992,108.607-6.354,127.076
					C2898.994,2814.243,2878.469,2929.163,2736.479,3123.196z"/>
				<path style="opacity:0.28;fill:#FFFFFF;" d="M2793.664,3082.956c89.88-80.499,110.654-146.453,112.25-192.731
					c1.243-36.055-8.513-78.85,19.061-118.604c17.638-25.43,30.936-21.333,61.421-48.712
					c63.68-57.193,71.589-134.286,84.716-131.312c7.306,1.656,11.096,26.946,6.355,50.831
					c-9.787,49.286-48.333,54.454-86.835,114.369c-26.303,40.93-35.436,80.721-40.241,101.66
					c-11.725,51.091-3.762,69.016-10.59,97.424C2930.953,2992.696,2898.926,3040.213,2793.664,3082.956z"/>
			</g>
			<g>
				
					<linearGradient id="SVGID_00000181809200589622116150000008624793000607138208_" gradientUnits="userSpaceOnUse" x1="-1258.1216" y1="3204.458" x2="-1298.5131" y2="2837.2632" gradientTransform="matrix(-0.9986 0.0527 0.0527 0.9986 1370.7856 28.5205)">
					<stop  offset="0" style="stop-color:#FF9085"/>
					<stop  offset="1" style="stop-color:#FB6FBB"/>
				</linearGradient>
				<path style="fill:url(#SVGID_00000181809200589622116150000008624793000607138208_);" d="M2838.201,3138.637
					c136.429,7.819,176.982,15.995,241.274-5.914c60.412-20.587,122.38-61.125,116.937-79.736
					c-3.904-13.349-41.831-13.172-64.484-13.065c-60.791,0.283-110.924,18.904-146.099,36.901
					c30.338-20.589,60.677-41.177,91.015-61.766c21.184-7.58,57.03-23.663,88.783-57.645c19.88-21.275,65.562-78.896,48.391-106.582
					c-17.935-28.921-103.141-23.08-152.256,17.936c-23.566,19.681-23.597,34.745-55.185,69.104
					c-28.708,31.228-58.345,51.049-79.167,63.014c19.51-24.389,46.047-62.489,66.677-113.834
					c31.346-78.02,55.009-201.446,15.141-223.883c-26.447-14.883-78.883,15.784-105.11,52.13
					c-21.265,29.468-19.18,54.184-33.812,148.874c-6.361,41.166-12.6,74.316-16.651,94.883
					c-40.575-89.002-52.346-163.881-54.723-218.914c-3.054-70.716,8.648-126.124-18.399-140.863
					c-24.107-13.137-67.154,12.494-88.988,36.545c-88.37,97.343,28.225,325.794,40.55,349.369
					c-32.425-24.555-77.11-62.973-120.388-118.503c-46.281-59.382-65.825-103.585-89.352-99.627
					c-23.401,3.937-38.823,53.753-37.067,92.306c4.895,107.48,145.264,170.596,160.245,177.104
					c-11.809,1.902-31.828,3.899-55.43-0.607c-52.336-9.99-68.661-41.716-121.758-52.486c-20.308-4.119-61.83-8.386-66.947,4.188
					c-9.185,22.569,95.693,107.327,222.947,139.646C2670.988,3139.056,2659.835,3128.415,2838.201,3138.637z"/>
				<path style="opacity:0.28;fill:#FFFFFF;" d="M2928.247,3060.88c62.113-27.613,53.672-65.162,121.622-111.659
					c43.515-29.775,53.625-18.924,100.255-47.389c25.649-15.656,46.614-33.609,63.633-51.366c0.081,0.125,0.183,0.238,0.261,0.364
					c17.171,27.686-28.511,85.307-48.391,106.582c-31.754,33.982-67.599,50.065-88.783,57.645
					c-30.338,20.588-60.677,41.177-91.015,61.766c35.175-17.997,85.308-36.618,146.099-36.901
					c19.748-0.093,51.097-0.237,61.401,8.572c-18.255,11.319-34.68,16.767-48.046,19.494c-30.476,6.219-49.595-0.738-75.959,15.155
					c-21.15,12.75-19.386,23.58-38.008,30.483c-17.526,6.496-26.478-0.358-69.725-7.46c-42.067-6.907-63.448-10.143-80.445,0.535
					c-12.847,8.071-19.67,21.384-23.434,33.093c-4.359-0.266-8.817-0.535-13.393-0.802c3.383-13.445,9.598-28.856,21.425-42.62
					C2884.492,3074.551,2905.01,3071.211,2928.247,3060.88z"/>
				<path style="opacity:0.28;fill:#FFFFFF;" d="M2751.25,3108.609c-9.815-2.349-14.506,4.668-28.135,6.439
					c-25.329,3.289-34.823-17.61-64.596-27.54c-35.24-11.753-44.176,10.109-79.275-0.764c-27.784-8.608-24.204-22.933-60.505-43.851
					c-38.628-22.259-54.986-13.127-83.375-31.5c-9.125-5.905-19.536-14.692-29.45-28.365c12.482-6.766,45.14-3.159,62.431,0.348
					c53.097,10.771,69.422,42.497,121.758,52.486c23.603,4.506,43.622,2.508,55.43,0.607
					c-14.981-6.508-155.35-69.624-160.245-177.104c-1.628-35.761,11.529-81.19,32.119-90.726c-2.448,24.828-2.79,46.05-2.412,62.744
					c0.879,38.839,1.569,58.588,13.855,74.79c21.316,28.11,47.298,13.457,82.728,42.676c32.254,26.601,21.015,47.233,54.662,73.871
					c29.037,22.99,46.244,14.618,73.563,33.257c17.14,11.693,37.957,33.838,50.462,80.184c-5.694-0.258-11.147-0.493-16.335-0.702
					C2768.993,3122.314,2761.829,3111.141,2751.25,3108.609z"/>
				<path style="opacity:0.28;fill:#FFFFFF;" d="M2781.894,2962.138c-16.998-46.3-46.51-41.541-58.823-82.318
					c-12.241-40.536,14.537-53.134,7.711-111.832c-5.113-43.975-21.718-50.45-22.823-80.507
					c-0.814-22.158,6.997-52.347,43.115-89.769c10.952-2.878,21.293-2.886,29.458,1.563c27.047,14.739,15.345,70.147,18.399,140.863
					c2.377,55.033,14.147,129.912,54.723,218.914c4.051-20.566,10.289-53.717,16.651-94.883
					c14.632-94.69,12.547-119.406,33.812-148.874c26.227-36.346,78.663-67.012,105.11-52.13c1.512,0.851,2.92,1.864,4.251,2.996
					c-13.192,8.993-25.359,20.045-35.59,33.68c-34.878,46.479-15.037,79.778-46.656,171.458
					c-30.411,88.174-61.265,93.62-85.742,169.81c-7.817,24.332-15.182,56.542-16.702,96.999c-8.935-0.494-17.353-0.932-25.32-1.323
					c-9.159-30.01-13.478-56.864-15.321-79.647C2784.092,3006.977,2793.375,2993.414,2781.894,2962.138z"/>
			</g>
		</g>
		<g>
			<path style="fill:#BFC8D6;" d="M1538.614,1402.073l16.016-35.28c6.004-13.225,2.443-29.104-7.974-35.504l-41.471-25.479
				c11.232-31.831,19.092-65.488,23.058-100.31l46.292-3.246c11.931-0.837,21.573-13.31,21.573-27.862v-38.7
				c0-14.552-9.642-25.798-21.573-25.116l-45.078,2.578c-3.106-35.101-10.266-68.566-20.92-99.791l38.119-28.273
				c1.22-0.905,2.327-1.949,3.355-3.071l4.88,12.68l62.613-76.994l-81.743-6.974c-3.587-4.644-8.409-7.437-13.515-8.043
				c-4.556-0.541-9.328,0.643-13.619,3.762l-37.652,27.364c-17.527-28.127-38.447-53.211-62.145-74.477l2.836-5.923l57.552,11.757
				l7.308-95.279l-87.402-14.424c-10.052-3.874-21.417,1.032-26.947,12.437l-21.722,44.8c-27.915-13.876-4.782-28.49-36.509-32.719
				l33.183-48.866c0-15.226-97.194-25.373-110.325-25.373h-35.147c-13.302,0-24.121,12.513-24.121,27.949v52.324
				c-32.828,5.016-64.479,15.464-94.239,30.592l60.032-44.108c0,0-105.739-20.031-117.769-12.083l-32.177,21.26
				c-12.17,8.041-16.348,25.637-9.31,39.258l24.338,47.096c-26.638,23.723-37.976,37.41-58.137,68.727L883.741,924
				c-12.488-7.673-28.515-2.468-35.773,11.671l-19.368,37.73c-7.308,14.236-2.969,31.954,9.666,39.528l45.582,27.324
				c-12.638,35.105-21.175,72.463-24.89,111.239l-54.686,3.127c-14.721,0.842-26.694,14.691-26.694,30.931v43.188
				c0,14.725,9.856,26.196,22.667,27.444l-0.005,0.019l62.147,9.944c5.145,32.311,13.77,62.968,25.422,91.484l-49.542,36.004
				c-12.635,9.182-16.974,27.453-9.666,40.758l19.368,35.265c7.258,13.215,122.44,21.253,122.44,21.253l-36.57-51.293
				c20.013,26.87,43.285,50.158,69.107,69.176l-28.87,59.541c-7.038,14.516-2.86,31.581,9.309,38.073l32.178,17.164
				c2.033,1.084,4.163,1.77,6.328,2.14l-0.128,0.602l100.383,12.37l9.821-75.764c11.678,1.793,23.544,2.89,35.573,3.217v64.813
				c0,11.523,6.032,20.643,14.622,23.825l-0.439,1.894l99.453,12.416l1.99-122.885c18.201-6.913,35.746-15.485,52.501-25.543
				l26.513,51.305c3.293,6.372,8.66,10.152,14.582,11.099l-0.003,0.02l96.115,13.008l-32.919-90.591l-13.284,4.078l-21.903-42.953
				c23.029-22.87,43.529-48.98,60.966-77.563l42.894,25.713C1519.155,1421.082,1532.572,1415.38,1538.614,1402.073z
				 M1209.273,1368.877c-94.099,8.381-172.145-74.183-172.145-184.607s78.046-202.794,172.145-206.236
				c91.779-3.356,164.537,79.542,164.537,185.085S1301.052,1360.703,1209.273,1368.877z M1611.162,1156.847l65.113-30.82
				l-65.113-7.901V1156.847z M1531.238,1419.899l74.487,10.047l10.873-25.398l-61.707-37.509L1531.238,1419.899z"/>
			<path style="fill:#D8DEE8;" d="M1670.517,1124.888l-44.823,2.589c-3.088-35-10.207-68.366-20.801-99.498l37.903-28.209
				c10.357-7.708,13.899-23.996,7.929-36.419l-15.926-33.139c-6.007-12.5-19.348-16.476-29.816-8.843l-37.438,27.303
				c-17.427-28.039-38.228-53.042-61.792-74.237l21.541-45.123c6.18-12.946,2.514-29.336-8.208-36.648l-28.672-19.552
				c-10.84-7.392-24.749-2.856-31.047,10.173l-21.598,44.682c-27.755-13.824-57.751-23.251-89.396-27.455v-51.595
				c0-15.221-10.55-27.555-23.605-27.549l-34.945,0.016c-13.226,0.006-23.983,12.488-23.983,27.88v52.174
				c-32.64,5.016-64.109,15.449-93.698,30.546l-23.345-45.901c-6.86-13.49-22.099-18.032-34.06-10.101l-31.992,21.213
				c-12.099,8.023-16.254,25.571-9.256,39.149l24.198,46.95c-26.484,23.665-50.164,51.557-70.223,82.813l-43.786-26.961
				c-12.416-7.645-28.351-2.448-35.567,11.653l-19.256,37.629c-7.266,14.198-2.952,31.863,9.609,39.409l45.319,27.225
				c-12.565,35.009-21.053,72.262-24.746,110.927l-54.37,3.14c-14.635,0.846-26.539,14.66-26.539,30.853v43.063
				c0,16.193,11.904,28.477,26.539,27.442l55.813-3.948c4.711,37.295,14.016,72.528,27.238,104.978l-49.255,35.92
				c-12.562,9.161-16.875,27.379-9.609,40.643l19.256,35.155c7.216,13.174,23.151,16.323,35.567,7.083l49.807-37.069
				c19.897,26.785,43.035,49.996,68.708,68.949l-28.703,59.38c-6.998,14.477-2.843,31.491,9.256,37.959l31.992,17.102
				c11.961,6.393,27.2-0.107,34.06-14.479l28.456-59.606c28.094,10.16,57.821,15.93,88.587,16.756v64.627
				c0,15.391,10.756,26.491,23.983,24.798l34.945-4.475c13.055-1.671,23.605-15.362,23.605-30.582v-63.911
				c29.843-7.75,58.22-19.959,84.633-35.87l26.361,51.148c6.298,12.219,20.207,14.968,31.048,6.182l28.672-23.236
				c10.723-8.69,14.389-25.551,8.208-37.703l-25.581-50.299c22.898-22.813,43.281-48.857,60.62-77.365l42.65,25.622
				c10.468,6.289,23.809,0.598,29.816-12.674l15.926-35.186c5.97-13.19,2.428-29.022-7.929-35.399l-41.235-25.39
				c11.168-31.745,18.984-65.31,22.927-100.034l46.03-3.256c11.863-0.839,21.451-13.281,21.451-27.792v-38.59
				C1691.968,1135.412,1682.38,1124.203,1670.517,1124.888z M1307.335,1382.603c-93.559,8.395-171.156-73.901-171.156-184.006
				c0-110.105,77.597-202.243,171.156-205.715c91.254-3.387,163.596,79.243,163.596,184.485
				C1470.931,1282.609,1398.59,1374.415,1307.335,1382.603z"/>
		</g>
		<g>
			<path style="fill:#BFC8D6;" d="M2246.227,1521.648l11.057-24.355c4.145-9.13,1.686-20.092-5.505-24.51l-28.629-17.589
				c7.754-21.975,13.18-45.21,15.918-69.249l31.958-2.241c8.237-0.578,14.893-9.188,14.893-19.235v-26.717
				c0-10.046-6.656-17.81-14.893-17.339l-31.12,1.779c-2.144-24.232-7.087-47.334-14.442-68.891l26.315-19.518
				c0.842-0.625,1.606-1.346,2.316-2.12l3.369,8.754l43.225-53.153l-56.431-4.815c-2.476-3.206-5.805-5.134-9.33-5.553
				c-3.145-0.373-6.439,0.444-9.402,2.597l-25.993,18.891c-12.099-19.417-26.542-36.734-42.901-51.415l1.958-4.089l39.731,8.116
				l5.045-65.776l-60.338-9.957c-6.939-2.675-14.785,0.712-18.603,8.586l-14.996,30.928c-19.271-9.579-3.301-19.668-25.204-22.588
				l22.907-33.734c0-10.511-67.098-17.516-76.162-17.516h-24.263c-9.183,0-16.652,8.638-16.652,19.295v36.122
				c-22.662,3.463-44.513,10.675-65.057,21.119l41.443-30.45c0,0-72.997-13.828-81.301-8.341l-22.214,14.677
				c-8.401,5.551-11.286,17.699-6.427,27.102l16.802,32.513c-18.389,16.377-26.216,25.826-40.134,47.446l-39.029-8.811
				c-8.621-5.297-19.686-1.703-24.696,8.057l-13.371,26.047c-5.045,9.828-2.05,22.059,6.673,27.288l31.468,18.863
				c-8.724,24.235-14.618,50.025-17.182,76.793l-37.752,2.159c-10.162,0.581-18.428,10.142-18.428,21.353v29.815
				c0,10.166,6.804,18.084,15.648,18.946l-0.004,0.013l42.903,6.865c3.552,22.306,9.506,43.47,17.55,63.156l-34.201,24.855
				c-8.723,6.339-11.718,18.952-6.673,28.137l13.371,24.345c5.01,9.123,84.526,14.672,84.526,14.672l-25.246-35.41
				c13.816,18.55,29.882,34.626,47.708,47.755l-19.93,41.104c-4.859,10.021-1.974,21.802,6.427,26.284l22.214,11.849
				c1.403,0.748,2.874,1.222,4.368,1.478l-0.089,0.416l69.299,8.539l6.78-52.304c8.062,1.237,16.253,1.995,24.558,2.221v44.743
				c0,7.955,4.164,14.251,10.094,16.448l-0.303,1.307l68.657,8.572l1.374-84.833c12.565-4.773,24.677-10.69,36.244-17.633
				l18.303,35.418c2.273,4.399,5.979,7.008,10.067,7.662l-0.002,0.014l66.353,8.98l-22.726-62.539l-9.171,2.815l-15.121-29.652
				c15.898-15.788,30.05-33.813,42.088-53.545l29.612,17.751C2232.793,1534.771,2242.056,1530.835,2246.227,1521.648z
				 M2018.867,1498.732c-64.961,5.786-118.84-51.212-118.84-127.443c0-76.231,53.879-139.998,118.84-142.374
				c63.36-2.317,113.587,54.912,113.587,127.773S2082.227,1493.088,2018.867,1498.732z M2296.31,1352.357l44.951-21.277
				l-44.951-5.454V1352.357z M2241.135,1533.954l51.422,6.936l7.506-17.533l-42.599-25.894L2241.135,1533.954z"/>
			<path style="fill:#D8DEE8;" d="M2337.285,1330.295l-30.943,1.787c-2.132-24.162-7.047-47.197-14.36-68.688l26.166-19.474
				c7.15-5.322,9.595-16.566,5.474-25.142l-10.994-22.877c-4.147-8.629-13.357-11.374-20.584-6.104l-25.845,18.848
				c-12.031-19.357-26.391-36.617-42.658-51.249l14.871-31.151c4.267-8.938,1.736-20.252-5.667-25.3l-19.794-13.498
				c-7.484-5.103-17.086-1.971-21.433,7.023l-14.91,30.846c-19.161-9.543-39.869-16.051-61.714-18.954v-35.619
				c0-10.508-7.283-19.023-16.296-19.019l-24.124,0.011c-9.131,0.004-16.556,8.621-16.556,19.247v36.018
				c-22.533,3.463-44.258,10.665-64.684,21.087l-16.116-31.688c-4.736-9.313-15.256-12.448-23.513-6.974l-22.086,14.645
				c-8.353,5.539-11.221,17.653-6.39,27.026l16.705,32.412c-18.283,16.337-34.63,35.593-48.478,57.17l-30.228-18.613
				c-8.571-5.278-19.572-1.69-24.553,8.045l-13.293,25.977c-5.016,9.802-2.038,21.996,6.634,27.206l31.286,18.794
				c-8.674,24.168-14.534,49.886-17.083,76.578l-37.534,2.168c-10.103,0.584-18.322,10.12-18.322,21.299v29.728
				c0,11.178,8.218,19.659,18.322,18.944l38.53-2.726c3.252,25.746,9.676,50.069,18.804,72.472l-34.003,24.797
				c-8.672,6.324-11.65,18.901-6.634,28.058l13.293,24.269c4.981,9.095,15.982,11.269,24.553,4.889l34.384-25.59
				c13.736,18.491,29.709,34.515,47.432,47.599l-19.815,40.993c-4.831,9.994-1.963,21.74,6.39,26.205l22.085,11.807
				c8.257,4.414,18.777-0.074,23.513-9.995l19.644-41.149c19.395,7.014,39.917,10.997,61.156,11.568v44.615
				c0,10.625,7.426,18.288,16.556,17.119l24.124-3.089c9.013-1.154,16.296-10.605,16.296-21.113v-44.12
				c20.602-5.35,40.192-13.779,58.426-24.763l18.198,35.31c4.348,8.435,13.95,10.333,21.434,4.268l19.793-16.041
				c7.402-5.999,9.933-17.639,5.667-26.028l-17.66-34.724c15.808-15.749,29.879-33.728,41.848-53.409l29.444,17.688
				c7.227,4.341,16.437,0.413,20.584-8.75l10.994-24.29c4.121-9.106,1.676-20.035-5.474-24.438l-28.467-17.528
				c7.71-21.915,13.105-45.086,15.828-69.058l31.776-2.248c8.19-0.579,14.809-9.169,14.809-19.186v-26.641
				C2352.094,1337.56,2345.475,1329.822,2337.285,1330.295z M2086.564,1508.207c-64.588,5.795-118.157-51.017-118.157-127.028
				c0-76.011,53.569-139.618,118.157-142.015c62.997-2.338,112.938,54.706,112.938,127.359
				C2199.502,1439.176,2149.561,1502.555,2086.564,1508.207z"/>
		</g>
		<g>
			
				<linearGradient id="SVGID_00000044878735559428663130000013898719227855533722_" gradientUnits="userSpaceOnUse" x1="1002.0013" y1="3251.4265" x2="-1349.0547" y2="7284.3853">
				<stop  offset="0" style="stop-color:#444B8C"/>
				<stop  offset="0.9964" style="stop-color:#26264F"/>
			</linearGradient>
			<path style="fill:url(#SVGID_00000044878735559428663130000013898719227855533722_);" d="M2549.652,1569.795
				c-0.314-80.864-66.75-148.394-149.502-150.89l-1537.625-46.36c-109.19-3.292-199.105,70.882-199.105,165.758v1.216v1535.922l0,0
				c0,95.514,90.264,162.387,199.865,149.534l1105.473-129.635l0,0l437.198-51.269c82.986-9.731,149.091-83.462,148.774-164.79
				L2549.652,1569.795z"/>
			<g>
				
					<linearGradient id="SVGID_00000168115641464674226890000008066065779981087372_" gradientUnits="userSpaceOnUse" x1="1631.8105" y1="2345.1621" x2="-1285.0966" y2="8277.5166">
					<stop  offset="0" style="stop-color:#AA80F9"/>
					<stop  offset="0.9964" style="stop-color:#6165D7"/>
				</linearGradient>
				<path style="fill:url(#SVGID_00000168115641464674226890000008066065779981087372_);" d="M2644.004,2879.281
					c0.315,81.328-65.789,155.059-148.773,164.79L952.558,3224.975c-109.602,12.853-199.865-54.02-199.865-149.534V1538.303
					c0-94.876,89.917-169.05,199.106-165.758l1537.625,46.361c82.753,2.495,149.186,70.025,149.5,150.889L2644.004,2879.281z"/>
				
					<linearGradient id="SVGID_00000158722563372233661990000010112958794994472355_" gradientUnits="userSpaceOnUse" x1="2721.4844" y1="137.3526" x2="-114.1631" y2="5904.4424">
					<stop  offset="0" style="stop-color:#AA80F9"/>
					<stop  offset="0.9964" style="stop-color:#6165D7"/>
				</linearGradient>
				<path style="fill:url(#SVGID_00000158722563372233661990000010112958794994472355_);" d="M2607.345,1571.274
					c-0.249-65.389-53.527-119.854-120.378-121.684l-1537.521-42.063c-87.925-2.406-160.396,57.439-160.39,133.719l0.115,1531.669
					c0.006,76.785,73.088,130.665,161.329,120.54l1541.807-176.906c67.035-7.692,120.296-67.148,120.045-132.909L2607.345,1571.274z
					"/>
				<g>
					
						<linearGradient id="SVGID_00000046307136851879660750000003317982210356569245_" gradientUnits="userSpaceOnUse" x1="1433.8081" y1="1693.3588" x2="2088.9407" y2="1693.3588">
						<stop  offset="0" style="stop-color:#AA80F9"/>
						<stop  offset="0.9964" style="stop-color:#6165D7"/>
					</linearGradient>
					<path style="opacity:0.2;fill:url(#SVGID_00000046307136851879660750000003317982210356569245_);" d="M1965.587,1841.138
						c-6.154,0.048-12.192-0.989-17.946-3.085c-45.193-16.548-93.031-26.516-142.267-29.556
						c-11.409-0.696-23.027-1.022-34.521-0.967c-11.517,0.055-23.202,0.494-34.734,1.305
						c-50.213,3.572-99.814,14.276-147.373,31.895c-6.14,2.262-12.573,3.431-19.149,3.483c-19.125,0.15-36.013-9.034-44.04-23.984
						l-88.093-168.267c-4.658-8.647-4.889-18.992-0.566-28.963c6.26-14.433,21.509-27.009,40.745-33.638
						c95.025-32.903,193.541-48.486,292.657-46.724c97.468,1.732,191.265,20.169,278.992,54.428
						c17.404,6.765,31.168,19.043,36.833,32.837c3.907,9.513,3.741,19.294-0.471,27.548c0,0-63.252,127.67-79.227,159.891
						C1999.015,1831.926,1983.403,1841,1965.587,1841.138z"/>
					<path style="fill:#FFFFFF;" d="M2071.466,1650.822c-26.381,53.145-52.866,106.549-79.505,160.19
						c-6.622,13.01-23.676,18.347-38.413,12.961c-47-17.276-96.596-27.554-147.022-30.734c-23.748-1.479-47.686-1.397-71.621,0.256
						c-51.474,3.594-102.954,14.509-152.533,32.806c-15.715,5.768-34.053,0.472-41.252-12.958
						c-29.138-55.71-58.386-111.702-87.795-167.953c-7.309-13.589,6.258-32.867,30.78-41.351
						c185.258-64.408,385.422-60.83,559.353,6.851C2065.699,1619.504,2077.985,1638.062,2071.466,1650.822z"/>
					<g>
						
							<linearGradient id="SVGID_00000163787134091213306160000006628383459057394831_" gradientUnits="userSpaceOnUse" x1="1580.7646" y1="1610.7594" x2="1538.3855" y2="1696.9495">
							<stop  offset="0" style="stop-color:#311944"/>
							<stop  offset="1" style="stop-color:#893976"/>
						</linearGradient>
						<path style="fill:url(#SVGID_00000163787134091213306160000006628383459057394831_);" d="M1579.37,1654.312
							c1.676,3.578-0.263,7.739-4.336,9.372l0,0c-4.057,1.633-8.841,0.167-10.672-3.353c-4.779-9.221-9.564-18.448-14.35-27.683
							c-1.853-3.53,0.308-7.911,4.818-9.708l0,0c4.517-1.796,9.553-0.275,11.245,3.309
							C1570.512,1635.611,1574.943,1644.965,1579.37,1654.312z"/>
						
							<linearGradient id="SVGID_00000160877775086271150900000017176248328429655431_" gradientUnits="userSpaceOnUse" x1="1639.5975" y1="1589.1718" x2="1594.2474" y2="1681.4041">
							<stop  offset="0" style="stop-color:#311944"/>
							<stop  offset="1" style="stop-color:#893976"/>
						</linearGradient>
						<path style="fill:url(#SVGID_00000160877775086271150900000017176248328429655431_);" d="M1635.357,1636.454
							c1.18,3.716-1.254,7.595-5.424,8.74l0,0c-4.168,1.145-8.604-0.845-9.974-4.523c-3.479-9.628-6.961-19.261-10.441-28.9
							c-1.342-3.684,1.302-7.752,5.937-9.005l0,0c4.617-1.255,9.373,0.814,10.534,4.537
							C1629.114,1617.025,1632.238,1626.741,1635.357,1636.454z"/>
						
							<linearGradient id="SVGID_00000005957044665991006720000009860709052327550386_" gradientUnits="userSpaceOnUse" x1="1699.387" y1="1574.6927" x2="1651.465" y2="1672.1555">
							<stop  offset="0" style="stop-color:#311944"/>
							<stop  offset="1" style="stop-color:#893976"/>
						</linearGradient>
						<path style="fill:url(#SVGID_00000005957044665991006720000009860709052327550386_);" d="M1692.344,1625.145
							c0.686,3.798-2.214,7.35-6.429,8.014l0,0c-4.233,0.662-8.337-1.799-9.173-5.574c-2.161-9.88-4.333-19.764-6.495-29.65
							c-0.851-3.778,2.271-7.491,6.963-8.208l0,0c4.693-0.718,9.045,1.845,9.719,5.643
							C1688.735,1605.297,1690.541,1615.222,1692.344,1625.145z"/>
						
							<linearGradient id="SVGID_00000078757714403340769110000006471933125330146981_" gradientUnits="userSpaceOnUse" x1="1759.4395" y1="1567.2406" x2="1709.3867" y2="1669.037">
							<stop  offset="0" style="stop-color:#311944"/>
							<stop  offset="1" style="stop-color:#893976"/>
						</linearGradient>
						<path style="fill:url(#SVGID_00000078757714403340769110000006471933125330146981_);" d="M1749.662,1620.287
							c0.181,3.817-3.101,7.008-7.346,7.197l0,0c-4.238,0.188-7.946-2.691-8.279-6.507c-0.851-9.981-1.704-19.964-2.552-29.947
							c-0.331-3.815,3.2-7.135,7.887-7.324l0,0c4.694-0.193,8.645,2.813,8.812,6.629
							C1748.676,1600.32,1749.17,1610.303,1749.662,1620.287z"/>
						
							<linearGradient id="SVGID_00000034810241449005751320000002089774100835165599_" gradientUnits="userSpaceOnUse" x1="1819.0593" y1="1566.7209" x2="1767.3389" y2="1671.9093">
							<stop  offset="0" style="stop-color:#311944"/>
							<stop  offset="1" style="stop-color:#893976"/>
						</linearGradient>
						<path style="fill:url(#SVGID_00000034810241449005751320000002089774100835165599_);" d="M1806.667,1621.782
							c-0.314,3.786-3.977,6.572-8.163,6.294l0,0c-4.208-0.277-7.46-3.524-7.315-7.326c0.447-9.937,0.896-19.872,1.343-29.807
							c0.145-3.801,4.051-6.68,8.705-6.355l0,0c4.65,0.323,8.122,3.715,7.825,7.499
							C1808.261,1601.983,1807.465,1611.881,1806.667,1621.782z"/>
						
							<linearGradient id="SVGID_00000137114288222379434840000011968247264046733477_" gradientUnits="userSpaceOnUse" x1="1877.6185" y1="1573.046" x2="1824.7128" y2="1680.6449">
							<stop  offset="0" style="stop-color:#311944"/>
							<stop  offset="1" style="stop-color:#893976"/>
						</linearGradient>
						<path style="fill:url(#SVGID_00000137114288222379434840000011968247264046733477_);" d="M1862.743,1629.53
							c-0.806,3.702-4.757,6.043-8.878,5.307l0,0c-4.114-0.739-6.938-4.301-6.288-8.035c1.717-9.752,3.434-19.501,5.147-29.246
							c0.63-3.727,4.852-6.138,9.411-5.304l0,0c4.551,0.834,7.585,4.562,6.773,8.257
							C1866.858,1610.179,1864.796,1619.852,1862.743,1629.53z"/>
						
							<linearGradient id="SVGID_00000068664131889334998460000002932120757745719217_" gradientUnits="userSpaceOnUse" x1="1934.4899" y1="1586.1207" x2="1880.8926" y2="1695.1261">
							<stop  offset="0" style="stop-color:#311944"/>
							<stop  offset="1" style="stop-color:#893976"/>
						</linearGradient>
						<path style="fill:url(#SVGID_00000068664131889334998460000002932120757745719217_);" d="M1917.293,1643.439
							c-1.283,3.562-5.483,5.429-9.48,4.239l0,0c-3.99-1.191-6.307-5.025-5.214-8.638c2.943-9.431,5.883-18.856,8.82-28.277
							c1.12-3.603,5.599-5.508,10-4.175l0,0c4.414,1.329,6.935,5.355,5.667,8.907
							C1923.825,1624.804,1920.56,1634.119,1917.293,1643.439z"/>
						
							<linearGradient id="SVGID_00000052797806512178328020000014242547391667041206_" gradientUnits="userSpaceOnUse" x1="1989.174" y1="1605.8943" x2="1935.3766" y2="1715.3064">
							<stop  offset="0" style="stop-color:#311944"/>
							<stop  offset="1" style="stop-color:#893976"/>
						</linearGradient>
						<path style="fill:url(#SVGID_00000052797806512178328020000014242547391667041206_);" d="M1969.743,1663.421
							c-1.698,3.376-6.163,4.725-9.965,3.09l0,0c-3.812-1.638-5.666-5.7-4.101-9.138c4.113-8.978,8.223-17.949,12.332-26.914
							c1.558-3.432,6.258-4.795,10.469-2.969l0,0c4.205,1.823,6.23,6.091,4.518,9.455
							C1978.582,1645.764,1974.163,1654.589,1969.743,1663.421z"/>
					</g>
					
						<linearGradient id="SVGID_00000163050318395173621820000017283026894593622180_" gradientUnits="userSpaceOnUse" x1="1734.75" y1="1733.5027" x2="1806.6677" y2="1733.5027">
						<stop  offset="0" style="stop-color:#AB316D"/>
						<stop  offset="1" style="stop-color:#792D3D"/>
					</linearGradient>
					<path style="fill:url(#SVGID_00000163050318395173621820000017283026894593622180_);" d="M1806.668,1790.208
						c0.002,1.033-0.044,2.043-0.141,3.03c-23.748-1.479-47.686-1.397-71.621,0.256c-0.102-0.993-0.154-2.008-0.156-3.048
						c-0.037-18.382,26.892-116.994,35.824-116.935C1778.248,1673.562,1806.628,1771.938,1806.668,1790.208z"/>
				</g>
				
					<linearGradient id="SVGID_00000016057951505206489500000008616337914694368701_" gradientUnits="userSpaceOnUse" x1="1394.9304" y1="3087.3586" x2="59.845" y2="5377.54">
					<stop  offset="0" style="stop-color:#AA80F9"/>
					<stop  offset="0.9964" style="stop-color:#6165D7"/>
				</linearGradient>
				<path style="fill:url(#SVGID_00000016057951505206489500000008616337914694368701_);" d="M2448.209,2769.293
					c0.067,19.241-15.967,36.372-35.658,38.244l-1358.99,129.233c-24.9,2.368-45.107-13.345-45.119-35.095l-0.336-639.564
					c-0.011-21.691,20.043-40.027,44.907-40.964l1357.435-51.152c19.669-0.741,35.725,14.214,35.792,33.409L2448.209,2769.293z"/>
				
					<linearGradient id="SVGID_00000148626056752619602380000004775811196169917844_" gradientUnits="userSpaceOnUse" x1="896.8325" y1="3169.7039" x2="-734.8289" y2="5968.626">
					<stop  offset="0" style="stop-color:#AA80F9"/>
					<stop  offset="0.9964" style="stop-color:#6165D7"/>
				</linearGradient>
				<path style="opacity:0.3;fill:url(#SVGID_00000148626056752619602380000004775811196169917844_);" d="M2062.359,3064.742
					c-1.115,10.119-2.546,20.514-4.328,30.599L952.558,3224.975c-109.414,12.831-199.865-54.18-199.865-149.534V1539.518
					c0-94.717,90.105-170.26,199.106-166.974l42.249,1.274c10.862,10.788,21.518,21.711,31.897,34.121
					c54.833,65.587,100.778,167.07,112.644,324.219c16.167,213.981-7.765,367.395,19.004,483.6
					c28.614,124.287,114.682,203.954,362.602,263.632c264.627,63.705,441.315,196.903,511.036,362.721
					C2060.107,2910.783,2071.109,2985.761,2062.359,3064.742z"/>
			</g>
		</g>
		<g>
			<g>
				
					<linearGradient id="SVGID_00000111193083995320432010000012261814788576590270_" gradientUnits="userSpaceOnUse" x1="4025.2795" y1="2494.5149" x2="4162.9258" y2="2058.8865" gradientTransform="matrix(0.9366 0.3503 -0.3503 0.9366 -357.9856 -1218.618)">
					<stop  offset="0" style="stop-color:#444B8C"/>
					<stop  offset="0.9964" style="stop-color:#26264F"/>
				</linearGradient>
				<path style="fill:url(#SVGID_00000111193083995320432010000012261814788576590270_);" d="M2754.521,2590.506
					c-7.233-2.538-14.143-5.929-20.534-10.079c-54.541-35.672-118.907-58.377-186.048-65.377c-8.141-0.875-16.078-2.67-23.724-5.354
					c-37.002-12.98-62.32-44.216-64.232-79.57l-0.032-0.776l-7.35-230.036c-0.91-19.529,7.596-37.934,23.967-51.82
					c24.833-21.069,64.854-29.823,106.809-23.525c135.4,20.181,263.318,72.038,369.185,148.115
					c31.509,22.603,52.313,54.172,55.837,84.509c2.305,19.854-3.078,37.999-15.181,51.2l-143.868,161.701
					C2826.249,2594.333,2789.1,2602.639,2754.521,2590.506z M2671.722,2468.604c37.094,13.446,72.138,31.12,104.203,52.482
					c1.113,0.736,2.442,1.402,3.845,1.908c4.447,1.604,10.71,1.737,14.119-1.689l142.675-159.338
					c-1.163-5.697-7.747-19.361-25.241-31.694c-96.378-68.058-212.328-113.899-334.796-131.09
					c-23.025-3.258-38.074,2.526-43.04,6.105l6.381,224.243c0.399,4.926,5.603,8.982,10.327,10.686
					c1.486,0.535,3.019,0.898,4.56,1.076C2594.883,2445.815,2634.276,2455.03,2671.722,2468.604z"/>
			</g>
			
				<linearGradient id="SVGID_00000164492137093217862080000018335879126699441037_" gradientUnits="userSpaceOnUse" x1="3768.5662" y1="3786.2725" x2="4015.3269" y2="3005.3164" gradientTransform="matrix(0.9366 0.3503 -0.3503 0.9366 -357.9856 -1218.618)">
				<stop  offset="0" style="stop-color:#444B8C"/>
				<stop  offset="0.9964" style="stop-color:#26264F"/>
			</linearGradient>
			<path style="fill:url(#SVGID_00000164492137093217862080000018335879126699441037_);" d="M2975.933,2912.769
				c-20.121,53.801-50.448,101.695-88.226,142.417c-114.993,124.015-303.15,184.283-486.272,136.091
				c-257.131-67.67-404.619-321.12-314.476-562.143c57.66-154.172,197.07-257.941,355.808-286.998
				c87.317-15.94,179.786-9.055,267.291,23.945C2943.083,2453.96,3056.75,2696.681,2975.933,2912.769z"/>
			<path style="opacity:0.3;fill:#FFFFFF;" d="M2975.933,2912.769c-20.121,53.801-50.448,101.695-88.226,142.417
				c-55.46,3.274-112.686-2.701-169.485-19.356c-263.865-77.372-412.899-352.797-316.542-610.437
				c11.044-29.529,24.847-57.345,41.087-83.256c87.317-15.94,179.786-9.055,267.291,23.945
				C2943.083,2453.96,3056.75,2696.681,2975.933,2912.769z"/>
		</g>
		<g>
			<g>
				
					<linearGradient id="SVGID_00000101071508779783566010000005170796492977865626_" gradientUnits="userSpaceOnUse" x1="2824.5874" y1="1227.7159" x2="2562.8083" y2="1827.4264">
					<stop  offset="0" style="stop-color:#311944"/>
					<stop  offset="1" style="stop-color:#6B3976"/>
				</linearGradient>
				<path style="fill:url(#SVGID_00000101071508779783566010000005170796492977865626_);" d="M2610.498,1793.832
					c-64.887,7.945-131.283,16.075-180.874-28.559c-36.483-32.836-63.356-93.766-44.425-139.622
					c25.531-61.845,111.21-40.153,142.795-95.197c42.535-74.127-86.787-158.895-88.851-304.63
					c-1.66-117.207,79.452-241.393,193.567-298.284c145.094-72.335,312.293-20.299,412.52,69.811
					c127.81,114.909,181.511,323.018,107.89,412.52c-74.445,90.504-248.094,22.061-304.63,123.756
					c-31.88,57.343,13.118,97.479-25.386,161.835C2776.405,1773.518,2666.865,1786.931,2610.498,1793.832z"/>
				
					<linearGradient id="SVGID_00000175299136293152333960000016692410999903134852_" gradientUnits="userSpaceOnUse" x1="2582.4526" y1="2414.3723" x2="2163.5864" y2="1884.4426">
					<stop  offset="0" style="stop-color:#FF9085"/>
					<stop  offset="1" style="stop-color:#FB6FBB"/>
				</linearGradient>
				<path style="fill:url(#SVGID_00000175299136293152333960000016692410999903134852_);" d="M2463.544,1828.249
					c-20.601-18.769-94.119,17.405-142.84,65.416c-57.239,56.405-52.839,102.138-102.792,172.21
					c-24.832,34.836-67.406,81.733-142.842,122.814c5.341,13.349,10.68,26.701,16.019,40.049
					c36.473,2.194,108.079,0.904,174.882-42.716c46.405-30.302,70.281-70.453,116.142-149.518
					C2428.137,1957.153,2489.295,1851.712,2463.544,1828.249z"/>
				
					<linearGradient id="SVGID_00000154419255723481706310000007276068830347419522_" gradientUnits="userSpaceOnUse" x1="4621.4917" y1="6299.9668" x2="4746.6597" y2="6299.9668" gradientTransform="matrix(0.831 -0.5562 0.5562 0.831 -5350.4219 279.3084)">
					<stop  offset="0" style="stop-color:#444B8C"/>
					<stop  offset="0.9964" style="stop-color:#26264F"/>
				</linearGradient>
				<path style="fill:url(#SVGID_00000154419255723481706310000007276068830347419522_);" d="M2013.6,2931.001l23.426-49.772
					c3.328-7.071,8.517-13.103,15.012-17.449l11.599-7.764c0,0,27.728-0.736,32.043,16.693
					c0.928,22.133-42.084,71.587-69.286,91.225c-4.516,3.259-10.955,7.605-14.869,5.369
					C2004.902,2965.515,2009.55,2945.156,2013.6,2931.001z"/>
				
					<linearGradient id="SVGID_00000072986728821276384140000005241621162557293968_" gradientUnits="userSpaceOnUse" x1="6442.584" y1="2971.8723" x2="6646.8364" y2="2359.1145" gradientTransform="matrix(1 0 0 1 -4414.3745 0)">
					<stop  offset="0" style="stop-color:#FFC444"/>
					<stop  offset="0.9964" style="stop-color:#F36F56"/>
				</linearGradient>
				<path style="fill:url(#SVGID_00000072986728821276384140000005241621162557293968_);" d="M2057.623,2828.953
					c3.689,21.348-0.978,32.478-6.008,38.713c-3.54,4.388-32.27,51.758-20.469,59.407c5.325,3.451,41.824-41.871,45.364-48.816
					c3.206-6.288,5.29-4.804,5.477-21.938c0.122-11.281,2.416-20.36,4.219-26.04
					C2076.677,2829.836,2067.15,2829.396,2057.623,2828.953z"/>
				
					<linearGradient id="SVGID_00000114769651054358226720000001446420088090019993_" gradientUnits="userSpaceOnUse" x1="6408.3364" y1="2690.4885" x2="6478.4858" y2="2690.4885" gradientTransform="matrix(1 0 0 1 -4414.3745 0)">
					<stop  offset="0" style="stop-color:#444B8C"/>
					<stop  offset="0.9964" style="stop-color:#26264F"/>
				</linearGradient>
				<path style="fill:url(#SVGID_00000114769651054358226720000001446420088090019993_);" d="M2016.136,2659.761
					c0,0-25.929,30.938-21.709,64.856c4.219,33.915,49.628-15.67,55.957-32.429c6.333-16.757,13.728-40.633,13.728-40.633
					S2032.269,2631.746,2016.136,2659.761z"/>
				
					<linearGradient id="SVGID_00000043445876987693422370000012717830955420078499_" gradientUnits="userSpaceOnUse" x1="6367.6802" y1="2883.1055" x2="6482.2266" y2="2539.4656" gradientTransform="matrix(1 0 0 1 -4414.3745 0)">
					<stop  offset="0" style="stop-color:#FFC444"/>
					<stop  offset="0.9964" style="stop-color:#F36F56"/>
				</linearGradient>
				<path style="fill:url(#SVGID_00000043445876987693422370000012717830955420078499_);" d="M2026.026,2611.353
					c0,0,7.034,36.044-6.382,55.067c-6.682,9.475-15.695,17.512-13.045,25.224c1.776,5.168,8.521,8.882,14.234,8.295
					c10.938-1.123,17.001-17.892,21.278-29.719c6.316-17.469,9.837-54.849,9.837-54.849L2026.026,2611.353z"/>
				
					<linearGradient id="SVGID_00000001643476701864607920000003016666138883643309_" gradientUnits="userSpaceOnUse" x1="6508.8228" y1="2304.1536" x2="6594.2603" y2="2798.0876" gradientTransform="matrix(1 0 0 1 -4414.3745 0)">
					<stop  offset="0" style="stop-color:#311944"/>
					<stop  offset="1" style="stop-color:#A03976"/>
				</linearGradient>
				<path style="fill:url(#SVGID_00000001643476701864607920000003016666138883643309_);" d="M2046.692,2641.738
					c-7.975-2.904-15.948-5.809-23.922-8.714c-12.439-28.413-27.622-75.082-22.551-131.806
					c13.042-145.876,147.961-223.177,162.949-231.451c36.76,18.445,73.993,44.463,75.342,77.264
					c1.692,41.176-54.401,62.941-107.13,123.15C2099.729,2506.321,2065.909,2560.171,2046.692,2641.738z"/>
				
					<linearGradient id="SVGID_00000164472870752710403700000003242741100930851475_" gradientUnits="userSpaceOnUse" x1="6629.48" y1="2889.5374" x2="6750.9614" y2="2505.0684" gradientTransform="matrix(1 0 0 1 -4414.3745 0)">
					<stop  offset="0" style="stop-color:#311944"/>
					<stop  offset="1" style="stop-color:#A03976"/>
				</linearGradient>
				<path style="fill:url(#SVGID_00000164472870752710403700000003242741100930851475_);" d="M2055.287,2845.639
					c-26.347-102.92-19.615-186.905-12.015-235.287c11.488-73.126,34.853-221.873,134.164-277.339
					c21.687-12.113,52.689-22.958,90.475-56.633c31.555-28.12,51.611-57.696,63.712-78.531
					c132.816-38.962,255.321-23.172,309.378,48.059c6.246,8.231,21.884,26.083,24.909,52.408
					c6.826,59.396-51.534,130.902-117.021,145.834c-83.228,18.979-131.512-66.48-205.25-38.047
					c-20.627,7.953-38.114,27.663-73.09,67.081c-44.493,50.145-69.505,96.417-78.968,114.932
					c-28.176,55.133-49.543,95.833-52.659,148.58c-0.725,12.287-1.159,37.113-15.552,63.887
					c-11.048,20.554-26.023,34.257-37.165,42.723C2075.898,2844.084,2065.593,2844.863,2055.287,2845.639z"/>
				
					<linearGradient id="SVGID_00000023249459228436673180000003671872570696980125_" gradientUnits="userSpaceOnUse" x1="6629.4907" y1="2889.5425" x2="6750.9722" y2="2505.0728" gradientTransform="matrix(1 0 0 1 -4414.3745 0)">
					<stop  offset="0" style="stop-color:#311944"/>
					<stop  offset="1" style="stop-color:#A03976"/>
				</linearGradient>
				<path style="opacity:0.3;fill:url(#SVGID_00000023249459228436673180000003671872570696980125_);" d="M2665.91,2298.315
					c-3.025-26.325-18.663-44.177-24.909-52.408c-54.057-71.231-176.562-87.02-309.378-48.059
					c-12.101,20.836-32.157,50.411-63.711,78.531c-37.786,33.675-68.789,44.521-90.476,56.633
					c-60.643,33.87-92.94,102.513-111.534,167.491c27.589-42.777,51.205-54.15,69.482-54.353
					c26.16-0.291,37.849,22.076,69.085,19.023c33.387-3.262,41.02-30.868,68.083-34.041c8.101-0.949,18.067,0.301,30.038,6.673
					c15.975-16.727,27.882-26.628,41.049-31.704c73.738-28.433,122.022,57.025,205.25,38.047
					C2614.375,2429.217,2672.736,2357.711,2665.91,2298.315z"/>
				
					<linearGradient id="SVGID_00000147924009217928547850000001573612565488026771_" gradientUnits="userSpaceOnUse" x1="6800.4321" y1="2254.3015" x2="6885.6724" y2="2747.0972" gradientTransform="matrix(1 0 0 1 -4414.3745 0)">
					<stop  offset="0" style="stop-color:#311944"/>
					<stop  offset="1" style="stop-color:#A03976"/>
				</linearGradient>
				<path style="fill:url(#SVGID_00000147924009217928547850000001573612565488026771_);" d="M2124.102,2379.045
					c15.033-0.798,38.182-1.26,66.106,1.498c132.523,13.096,169.056,78.648,278.583,94.643
					c25.909,3.785,141.269,20.633,191.234-46.056c35.87-47.879,30.443-130.377-8.792-162.825
					c-16.605-13.732-33.045-13.351-139.389-12.389c-40.048,0.363-80.099,0.492-120.147,1.002
					c-169.524,2.16-201.944-9.58-232.79,18.459C2144.518,2286.458,2123.477,2314.553,2124.102,2379.045z"/>
				<g>
					<g>
						
							<linearGradient id="SVGID_00000082352281525616633130000010138147772994744468_" gradientUnits="userSpaceOnUse" x1="2704.8296" y1="2317.6436" x2="2285.9626" y2="1787.7131">
							<stop  offset="0" style="stop-color:#FF9085"/>
							<stop  offset="1" style="stop-color:#FB6FBB"/>
						</linearGradient>
						<path style="fill:url(#SVGID_00000082352281525616633130000010138147772994744468_);" d="M2481.986,1835.128
							c0,0,133.811-39.023,192.743,27.689c10.82,12.247,19.374,28.354,25.599,59.444c31.721,158.431-88.259,253.591-40.989,337.172
							c18.771,33.191,51.833,43.191,75.327,102.841c3.977,10.098,18.365,46.624,5.163,58.133
							c-11.627,10.137-30.747-11.264-64.712-7.131c-35.968,4.376-44.372,32.007-68.571,27.984
							c-15.779-2.624-22.58-16.095-45.825-49.68c-33.652-48.622-50.477-72.933-62.539-81.458
							c-47.589-33.633-84.372,10.228-138.641-23.075c-19.647-12.059-92.444-105.785-71.027-80.038l0,0
							c50.976-63.595,62.822-116.062,64.04-152.542c1.335-39.994-10.193-58.171,0-105.449c0,0,11.372-52.751,52.402-98.049
							C2410.847,1844.466,2417.868,1837.694,2481.986,1835.128z"/>
					</g>
				</g>
				<g>
					
						<linearGradient id="SVGID_00000142154056610086060950000017172689230058903724_" gradientUnits="userSpaceOnUse" x1="-4715.9409" y1="3067.1206" x2="-4707.2358" y2="2835.2502" gradientTransform="matrix(-0.984 0.1784 0.1784 0.984 -2665.938 -244.2395)">
						<stop  offset="0" style="stop-color:#FFC444"/>
						<stop  offset="0.9964" style="stop-color:#F36F56"/>
					</linearGradient>
					<path style="fill:url(#SVGID_00000142154056610086060950000017172689230058903724_);" d="M2524.949,1748.335
						c-1.812,8.467-11.036,53.898,7.552,65.587c4.029,2.536,11.771,3.986,27.256,6.888c10.138,1.9,18.643,3.065,24.643,3.782
						c-0.867,7.617-3.433,20.018-12.225,31.297c-24.646,31.619-74.061,23.436-81.108,22.153
						c-24.856-4.526-49.316-12.206-55.223-16.9c-8.994-7.147-16.066-12.509-20.249-17.957c9.619-4.648,29.039-16.907,42.072-20.919
						c9.74-2.996,18.882-5.134,27.199-6.67c1.366-8.776,2.735-17.552,4.102-26.329
						C2500.963,1775.624,2512.956,1761.98,2524.949,1748.335z"/>
					
						<linearGradient id="SVGID_00000052816438806331327500000015250064152771491504_" gradientUnits="userSpaceOnUse" x1="2611.8474" y1="1553.1792" x2="2453.1858" y2="1813.3843">
						<stop  offset="0" style="stop-color:#FFC444"/>
						<stop  offset="0.9964" style="stop-color:#F36F56"/>
					</linearGradient>
					<path style="fill:url(#SVGID_00000052816438806331327500000015250064152771491504_);" d="M2525.82,1770.977
						c0,0-3.359,33.293-35.722,39.16c-28.978,5.254-50.792-64.771-35.961-82.884c4.947-6.042,17.159-11.79,27.746-11.486
						c7.446,0.216,32.595,9.794,36.105,34.958c5.009-5.276,11.25-6.793,14.327-4.584c3.903,2.803,1.813,10.953,1.337,12.799
						C2532.01,1765.339,2527.832,1769.305,2525.82,1770.977z"/>
				</g>
				
					<linearGradient id="SVGID_00000135655374777652925390000013849776063652434076_" gradientUnits="userSpaceOnUse" x1="2284.6113" y1="2238.4419" x2="2745.2876" y2="2238.4419">
					<stop  offset="0" style="stop-color:#FF9085"/>
					<stop  offset="1" style="stop-color:#FB6FBB"/>
				</linearGradient>
				<path style="opacity:0.3;fill:url(#SVGID_00000135655374777652925390000013849776063652434076_);" d="M2288.514,2207.008
					c6.133-7.652,11.671-15.133,16.721-22.454c28.114-9.42,52.437-12.925,72.057-13.877c44.258-2.146,68.492,8.267,98.617-9.862
					c34.196-20.578,28.143-49.143,61.143-65.088c34.731-16.781,59.288,2.183,92.701-3.944c20.178-3.7,44.757-17.194,69.838-56.557
					c-19.207,94.773-75.069,162.648-40.253,224.206c18.771,33.191,51.833,43.191,75.327,102.841
					c3.977,10.098,18.365,46.624,5.163,58.133c-11.627,10.137-30.747-11.264-64.712-7.131
					c-35.968,4.376-44.373,32.007-68.571,27.984c-15.779-2.624-22.58-16.095-45.825-49.68
					c-33.652-48.622-50.477-72.933-62.539-81.458c-47.589-33.633-84.372,10.228-138.641-23.075
					C2339.894,2274.987,2267.098,2181.261,2288.514,2207.008z"/>
			</g>
			<g>
				
					<linearGradient id="SVGID_00000026881007205958758950000012818057952971623309_" gradientUnits="userSpaceOnUse" x1="8164.4556" y1="2247.8645" x2="8495.3877" y2="2247.8645" gradientTransform="matrix(1 0 0 1 -5924.3677 0)">
					<stop  offset="0" style="stop-color:#40447E"/>
					<stop  offset="0.9964" style="stop-color:#3C3B6B"/>
				</linearGradient>
				<path style="fill:url(#SVGID_00000026881007205958758950000012818057952971623309_);" d="M2248.194,2223.269l302.771,14.733
					c4.167,0.204,7.968,2.437,10.173,5.977l8.378,13.447c4.17,6.693-0.84,15.326-8.721,15.026l-320.706-12.217L2248.194,2223.269z"
					/>
				
					<linearGradient id="SVGID_00000158720017177710161870000000049187263618184579_" gradientUnits="userSpaceOnUse" x1="7952.8252" y1="2039.1112" x2="8169.793" y2="2254.3433" gradientTransform="matrix(1 0 0 1 -5924.3677 0)">
					<stop  offset="0" style="stop-color:#40447E"/>
					<stop  offset="0.9964" style="stop-color:#3C3B6B"/>
				</linearGradient>
				<path style="fill:url(#SVGID_00000158720017177710161870000000049187263618184579_);" d="M1933.287,2054.666l312.796,6.062
					c9.256,0.179,17.73,5.221,22.303,13.268l108.318,190.574l-330.351-13.161c-9.067-0.362-17.341-5.271-22.002-13.058
					l-100.356-167.658C1919.723,2063.556,1924.97,2054.504,1933.287,2054.666z"/>
				
					<linearGradient id="SVGID_00000011024712354437899710000013582797627749095845_" gradientUnits="userSpaceOnUse" x1="7952.8257" y1="2039.1115" x2="8169.7935" y2="2254.3438" gradientTransform="matrix(1 0 0 1 -5924.3677 0)">
					<stop  offset="0" style="stop-color:#40447E"/>
					<stop  offset="0.9964" style="stop-color:#3C3B6B"/>
				</linearGradient>
				<path style="opacity:0.3;fill:url(#SVGID_00000011024712354437899710000013582797627749095845_);" d="M2268.387,2073.997
					c-4.574-8.048-13.049-13.09-22.305-13.269l-6.855-0.132c-1.021,10.097-4.12,19.333-10.299,26.79
					c-19.287,23.281-51.332,8.921-75.216,33.559c-26.237,27.065-1.999,59.283-25.456,84.472
					c-24.691,26.512-64.617,4.926-110.513,21.893l6.609,11.041c4.66,7.787,12.934,12.697,22.001,13.058l330.351,13.161
					L2268.387,2073.997z"/>
			</g>
			<g>
				
					<linearGradient id="SVGID_00000039818924537468283690000016916925261924106916_" gradientUnits="userSpaceOnUse" x1="2785.292" y1="2254.0447" x2="2366.4248" y2="1724.1138">
					<stop  offset="0" style="stop-color:#FF9085"/>
					<stop  offset="1" style="stop-color:#FB6FBB"/>
				</linearGradient>
				<path style="fill:url(#SVGID_00000039818924537468283690000016916925261924106916_);" d="M2526.292,2213.152
					c-3.941-10.407-7.882-20.812-11.823-31.22c43.554-11.943,103.792-29.584,165.577-51.662c9.677-3.458,21.173-7.741,24.938-17.923
					c10.565-28.563-56.599-58.161-82.709-120.528c-24.148-57.681-10.856-137.728,17.168-147.184
					c58.316-19.678,265.115,237.736,191.255,346.248C2788.948,2252.223,2660.231,2261.99,2526.292,2213.152z"/>
			</g>
			
				<linearGradient id="SVGID_00000034072280342130758470000016034766272026290591_" gradientUnits="userSpaceOnUse" x1="-6631.4224" y1="2182.6086" x2="-6741.4297" y2="2286.2769" gradientTransform="matrix(-1 0 0 1 -4184.0889 0)">
				<stop  offset="0" style="stop-color:#FFC444"/>
				<stop  offset="0.9964" style="stop-color:#F36F56"/>
			</linearGradient>
			<path style="fill:url(#SVGID_00000034072280342130758470000016034766272026290591_);" d="M2514.469,2181.932
				c-27.344-14.525-60.073,0.364-62.183,1.36c-6.008,2.836-14.752,7.888-23.587,16.913c-0.999,1.363-12.86,17.798-8.539,23.064
				c3.464,4.219,16.877,0.722,32.997-9.304c6.757-0.948,16.816-1.818,28.867-0.708c22.131,2.042,32.268,9.033,40.302,2.998
				c5.883-4.417,7.887-13.758,5.77-20.703C2525.825,2188.091,2519.098,2184.391,2514.469,2181.932z"/>
		</g>
		<g>
			
				<linearGradient id="SVGID_00000042735182878556262800000002943445981795598002_" gradientUnits="userSpaceOnUse" x1="1379.3136" y1="1685.3073" x2="692.8821" y2="3081.3594">
				<stop  offset="0" style="stop-color:#311944"/>
				<stop  offset="1" style="stop-color:#893976"/>
			</linearGradient>
			<path style="fill:url(#SVGID_00000042735182878556262800000002943445981795598002_);" d="M1315.246,1999.225l-375.359-5.372
				c-16.385-0.235-30.072,12.146-30.072,27.689v375.099c0,15.543,13.68,26.963,30.066,26.267l307.746-13.67h0.082l67.508-2.25
				c14.74-0.626,26.685-12.392,26.685-27.052v-353.787C1341.901,2011.488,1329.985,1999.435,1315.246,1999.225z"/>
			<g>
				
					<linearGradient id="SVGID_00000158748852925167213900000007719869243186989749_" gradientUnits="userSpaceOnUse" x1="938.3831" y1="2208.7004" x2="1366.8978" y2="2208.7004">
					<stop  offset="0" style="stop-color:#FF9085"/>
					<stop  offset="1" style="stop-color:#FB6FBB"/>
				</linearGradient>
				<path style="fill:url(#SVGID_00000158748852925167213900000007719869243186989749_);" d="M1366.898,2026.149v353.787
					c0,14.66-11.716,27.039-26.455,27.666l-373.679,15.922c-16.385,0.696-28.381-11.338-28.381-26.881v-375.099
					c0-15.543,12.085-27.924,28.47-27.689l374.216,5.372C1355.809,1999.435,1366.898,2011.488,1366.898,2026.149z"/>
				<path style="opacity:0.7;fill:#FFFFFF;" d="M1292.384,2171.968c0-21.136-8.341-40.988-23.511-55.923
					c-15.21-14.976-35.575-23.29-57.324-23.318c-20.114-0.026-39.219,7.014-54.323,19.959
					c-14.977-12.225-33.842-18.906-53.755-18.928c-21.669-0.024-42.192,7.792-58.068,22.116c-0.652,0.579-1.28,1.158-1.908,1.76
					c-32.557,31.217-33.752,81.091-2.73,113.059l78.479,74.605c10.093,9.478,23.5,14.475,37.702,14.057
					c14.124-0.416,27.38-6.158,37.319-16.114l74.472-74.758c0.046-0.068,0.091-0.114,0.136-0.159
					c0.273-0.251,0.522-0.524,0.773-0.775l2.521-2.553l-0.091-0.066C1285.219,2210.192,1292.384,2191.563,1292.384,2171.968z
					 M1240.701,2216.077l-38.837,0.607c-1.135,0.018-2.222-2.319-3.126-2.938l-16.553-12.269l-11.35,17.646l-30.116,46.808
					c-1.013,1.596-2.778,2.092-4.639,2.134c-0.495,0.011-2.496-0.056-2.991-0.182c-2.358-0.609-5.446-2.663-5.446-5.039v-92.818
					l-12.324,21.473l-9.979,16.902c-0.998,1.596-2.076,2.944-3.977,2.972l-69.317,1.021c-3.102,0.046-5.586-2.72-5.586-5.708
					c0-2.988,2.579-5.824,5.681-5.865l66.366-0.874l8.59-13.404l24.313-37.985c1.297-2.018,4.013-2.955,6.346-2.33
					c2.377,0.647,4.172,2.727,4.172,5.099v92.805l19.097-30.207l15.085-23.733c0.792-1.258,2.037-2.139,3.505-2.428
					c1.466-0.312,2.972,1.642,4.181,2.467l19.795,15.119l37.118-0.524c2.953-0.042,5.328,2.645,5.328,5.546
					C1246.036,2213.273,1243.654,2216.031,1240.701,2216.077z"/>
				
					<linearGradient id="SVGID_00000082330804286762923010000004043532612494786435_" gradientUnits="userSpaceOnUse" x1="1280.433" y1="1857.4469" x2="761.485" y2="2912.874">
					<stop  offset="0" style="stop-color:#FF9085"/>
					<stop  offset="1" style="stop-color:#FB6FBB"/>
				</linearGradient>
				<path style="opacity:0.3;fill:url(#SVGID_00000082330804286762923010000004043532612494786435_);" d="M1273.165,2410.467
					l-306.312,13.056c-16.385,0.696-28.47-11.338-28.47-26.881v-375.099c0-15.543,12.085-27.924,28.47-27.689l66.328,0.967
					c14.29,32.545,19.936,70.764,13.255,112.64c-0.458,2.888-0.855,5.709-0.879,8.413c-0.242,30.639,26.265,51.272,61.625,70.67
					c3.016,1.661,6.06,3.297,9.187,4.953c4.357,2.258,8.805,4.534,13.317,6.83c3.892,1.959,7.818,3.915,11.773,5.891
					c6.393,3.17,12.842,6.403,19.332,9.697c3.369,1.699,6.708,3.444,10.047,5.209c23.313,12.22,46.179,25.724,64.961,42.425
					C1272.281,2293.977,1293.58,2338.651,1273.165,2410.467z"/>
			</g>
		</g>
		<g>
			
				<linearGradient id="SVGID_00000076573037128000807970000018050845699114196870_" gradientUnits="userSpaceOnUse" x1="1035.3282" y1="1183.7249" x2="400.0313" y2="2475.7808">
				<stop  offset="0" style="stop-color:#311944"/>
				<stop  offset="1" style="stop-color:#893976"/>
			</linearGradient>
			<path style="fill:url(#SVGID_00000076573037128000807970000018050845699114196870_);" d="M949.096,1861.174
				c0-0.006,0-0.012,0-0.017l43.755,0.188c14.766,0.061,24.093-10.946,24.093-24.572v-328.832c0-13.626-10.497-25.332-25.263-26.23
				l-377.138-22.977c-16.555-1.009-29.684,9.927-29.684,24.44v350.246c0,13.641,11.766,24.882,26.926,26.24
				c1.018,0.096,3.686,0.148,4.731,0.152L949.096,1861.174z"/>
			<g>
				
					<linearGradient id="SVGID_00000162341121374604520980000003181012031877474713_" gradientUnits="userSpaceOnUse" x1="1056.715" y1="1183.5836" x2="421.2683" y2="2475.9441">
					<stop  offset="0" style="stop-color:#FFC444"/>
					<stop  offset="0.9964" style="stop-color:#F36F56"/>
				</linearGradient>
				<path style="fill:url(#SVGID_00000162341121374604520980000003181012031877474713_);" d="M1038.37,1507.942v328.832
					c0,13.626-10.729,24.633-25.496,24.572l-376.939-1.543c-16.555-0.068-29.651-11.869-29.651-26.382v-350.246
					c0-14.513,13.698-25.448,30.253-24.44l376.686,22.977C1027.989,1482.61,1038.37,1494.316,1038.37,1507.942z"/>
				<g>
					<g>
						<polygon style="opacity:0.7;fill:#FFFFFF;" points="766.977,1742.685 695.558,1741.163 695.558,1635.249 766.977,1637.869 
													"/>
						<polygon style="opacity:0.7;fill:#FFFFFF;" points="866.964,1744.71 795.545,1743.275 795.545,1587.719 866.964,1590.738 
													"/>
						<polygon style="opacity:0.7;fill:#FFFFFF;" points="959.809,1746.761 891.961,1745.307 891.961,1547.795 959.809,1551.245 
													"/>
					</g>
					<polygon style="opacity:0.7;fill:#FFFFFF;" points="970.522,1790.594 681.274,1786.387 681.274,1762.562 970.522,1767.753 
											"/>
				</g>
				
					<linearGradient id="SVGID_00000110429930391145793370000001634209238908368791_" gradientUnits="userSpaceOnUse" x1="945.0046" y1="1348.2219" x2="467.0323" y2="2320.3137">
					<stop  offset="0" style="stop-color:#FFC444"/>
					<stop  offset="0.9964" style="stop-color:#F36F56"/>
				</linearGradient>
				<path style="opacity:0.3;fill:url(#SVGID_00000110429930391145793370000001634209238908368791_);" d="M967.714,1861.174
					l-331.177-1.362c-16.555-0.068-30.253-11.879-30.253-26.392v-350.246c0-14.513,13.698-25.448,30.253-24.44l54.965,3.34
					c32.566,38.344,51.115,89.98,41.045,148c-1.673,9.719-0.334,18.521,3.372,26.633c5.832,12.816,17.6,23.918,32.842,34.301
					c7.931,5.42,16.831,10.643,26.295,15.807c21.786,11.853,46.728,23.421,70.694,36.426c8.712,4.719,17.287,9.655,25.56,14.845
					c3.841,2.416,7.631,4.891,11.324,7.446c9.63,6.634,18.637,13.74,26.728,21.458c7.499,7.169,14.207,14.893,19.832,23.274
					C962.255,1809.688,969.57,1832.768,967.714,1861.174z"/>
			</g>
		</g>
		<g>
			
				<linearGradient id="SVGID_00000069396278018573467840000009901156798583670442_" gradientUnits="userSpaceOnUse" x1="1605.2875" y1="2237.5564" x2="930.366" y2="3610.2002">
				<stop  offset="0" style="stop-color:#311944"/>
				<stop  offset="1" style="stop-color:#893976"/>
			</linearGradient>
			<path style="fill:url(#SVGID_00000069396278018573467840000009901156798583670442_);" d="M1537.34,2544.742l-359.709,21.518
				c-15.753,0.941-28.561,13.361-28.561,27.746v347.144c0,13.491,10.91,23.263,25.299,22.911c0.977-0.022,1.823-0.087,2.826-0.204
				l308.164-35.926c0.001-0.005-0.033-0.01-0.032-0.015l52.032-6c14.115-1.644,25.942-13.939,25.942-27.477v-326.727
				C1563.3,2554.172,1551.455,2543.899,1537.34,2544.742z"/>
			<g>
				
					<linearGradient id="SVGID_00000006668121947713041500000014650545381439961490_" gradientUnits="userSpaceOnUse" x1="1813.3521" y1="2166.3479" x2="682.8283" y2="3666.1133">
					<stop  offset="0" style="stop-color:#FFC444"/>
					<stop  offset="0.9964" style="stop-color:#F36F56"/>
				</linearGradient>
				<path style="fill:url(#SVGID_00000006668121947713041500000014650545381439961490_);" d="M1584.726,2567.711v326.727
					c0,13.539-11.256,25.833-25.371,27.478l-360.077,41.941c-15.754,1.836-28.783-8.322-28.783-22.706v-347.143
					c0-14.385,13.105-26.804,28.859-27.746l359.851-21.518C1573.321,2543.899,1584.726,2554.172,1584.726,2567.711z"/>
				<g style="opacity:0.7;">
					<path style="fill:#FFFFFF;" d="M1318.79,2673.76c-14.578,1.114-26.882,13.002-26.882,26.543v110.866
						c0,13.541,12.305,23.335,26.882,21.884c14.516-1.446,26.682-13.508,26.682-26.947v-110.024
						C1345.472,2682.645,1333.306,2672.65,1318.79,2673.76z"/>
					<path style="fill:#FFFFFF;" d="M1267.11,2701.265l0.095,0.025c-10.213,0.815-18.149,9.11-18.149,18.521v28.017l-3.912,0.431
						c-6.308,0.544-10.371,5.683-10.371,11.473v0.538c0,5.79,4.064,10.024,10.371,9.46l3.912-0.446v30.162
						c0,9.411,8.315,16.241,18.529,15.259l-0.482-0.028c10.183-0.979,17.663-9.362,17.663-18.723v-79.212
						C1284.766,2707.38,1277.292,2700.452,1267.11,2701.265z"/>
					<path style="fill:#FFFFFF;" d="M1449.126,2663.804c-14.03,1.072-25.093,12.708-25.093,25.992v108.76
						c0,13.284,11.063,22.919,25.093,21.522c13.972-1.391,24.901-13.2,24.901-26.384v-107.943
						C1474.026,2672.568,1463.098,2662.737,1449.126,2663.804z"/>
					<path style="fill:#FFFFFF;" d="M1519.276,2724.346l-2.398,0.406v-26.938c0-9.049-7.859-15.777-17.373-15.017l-0.646,0.017
						c-9.542,0.762-17.691,8.752-17.691,17.848v76.97c0,9.096,8.065,15.724,17.607,14.806l0.575-0.02
						c9.514-0.915,17.528-8.987,17.528-18.035v-29.001l2.398-0.42c5.805-0.519,8.315-5.442,8.315-10.984v-0.515
						C1527.591,2727.922,1525.082,2723.845,1519.276,2724.346z"/>
					<polygon style="fill:#FFFFFF;" points="1352.614,2766.348 1420.462,2760.264 1420.462,2728.87 1352.614,2734.642 					"/>
				</g>
				
					<linearGradient id="SVGID_00000153681485687024262610000010840688146238042022_" gradientUnits="userSpaceOnUse" x1="1503.3763" y1="2424.241" x2="1005.8317" y2="3436.1384">
					<stop  offset="0" style="stop-color:#FFC444"/>
					<stop  offset="0.9964" style="stop-color:#F36F56"/>
				</linearGradient>
				<path style="opacity:0.3;fill:url(#SVGID_00000153681485687024262610000010840688146238042022_);" d="M1507.889,2927.93
					l-308.535,35.926c-15.754,1.836-28.859-8.322-28.859-22.706v-347.143c0-14.385,13.105-26.804,28.859-27.746l78.424-4.68
					c13.672,29.038,19.445,63.892,13.054,103.022c-1.686,10.387-0.148,19.4,3.869,27.38c8.341,16.587,27.499,28.704,51.172,39.744
					c2.227,1.037,4.53,2.068,6.821,3.097c19.295,8.547,40.974,16.637,62.021,25.934c3.295,1.461,6.567,2.943,9.811,4.447
					c18.384,8.587,35.945,18.34,50.615,30.429C1508.148,2822.841,1526.838,2862.133,1507.889,2927.93z"/>
			</g>
		</g>
	</g>
</g>
</svg>
